<?xml version="1.0" encoding="UTF-8"?>
<svg xmlns="http://www.w3.org/2000/svg" xmlns:xlink="http://www.w3.org/1999/xlink" width="76pt" height="76pt" viewBox="0 0 76 76" version="1.1">
<g id="surface2257378">
<path style=" stroke:none;fill-rule:nonzero;fill:rgb(100%,100%,100%);fill-opacity:1;" d="M 28.738281 10.640625 C 28.738281 10.640625 19.058594 11.304688 12.730469 16.386719 C 12.699219 16.398438 12.664062 16.417969 12.636719 16.433594 C 11.535156 17.449219 10.710938 19.023438 9.691406 21.28125 C 8.667969 23.535156 7.589844 26.441406 6.601562 29.6875 C 4.636719 36.1875 3.039062 44.167969 3.039062 51.679688 C 3.035156 51.945312 3.097656 52.207031 3.230469 52.441406 C 5.449219 56.339844 9.535156 58.699219 13.347656 60.183594 C 17.160156 61.667969 20.679688 62.261719 22.46875 62.320312 C 22.972656 62.335938 23.453125 62.105469 23.75 61.703125 L 27.453125 56.574219 C 30.441406 57.277344 33.945312 57.761719 38 57.761719 C 42.054688 57.761719 45.558594 57.277344 48.546875 56.574219 L 52.25 61.703125 C 52.546875 62.105469 53.027344 62.335938 53.53125 62.320312 C 55.320312 62.261719 58.839844 61.667969 62.652344 60.183594 C 66.464844 58.699219 70.550781 56.339844 72.769531 52.441406 C 72.902344 52.207031 72.964844 51.945312 72.960938 51.679688 C 72.960938 44.167969 71.363281 36.1875 69.398438 29.6875 C 68.410156 26.441406 67.332031 23.535156 66.308594 21.28125 C 65.289062 19.023438 64.464844 17.449219 63.363281 16.433594 C 63.335938 16.417969 63.300781 16.398438 63.269531 16.386719 C 56.941406 11.304688 47.261719 10.640625 47.261719 10.640625 C 47.148438 10.628906 47.042969 10.628906 46.929688 10.640625 C 46.402344 10.710938 45.957031 11.054688 45.742188 11.542969 C 45.742188 11.542969 45.226562 12.675781 44.886719 14.296875 C 41.925781 13.824219 39.429688 13.679688 38 13.679688 C 36.570312 13.679688 34.074219 13.824219 31.113281 14.296875 C 30.773438 12.675781 30.257812 11.542969 30.257812 11.542969 C 29.996094 10.949219 29.382812 10.585938 28.738281 10.640625 Z M 27.789062 13.917969 C 27.898438 14.226562 27.976562 14.515625 28.074219 14.867188 C 24.648438 15.664062 20.894531 16.964844 17.386719 19.140625 C 16.832031 19.375 16.46875 19.910156 16.453125 20.507812 C 16.441406 21.101562 16.78125 21.652344 17.3125 21.914062 C 17.855469 22.171875 18.496094 22.09375 18.953125 21.707031 C 25.996094 17.34375 34.953125 16.71875 38 16.71875 C 41.046875 16.71875 50.003906 17.34375 57.046875 21.707031 C 57.503906 22.09375 58.144531 22.171875 58.6875 21.914062 C 59.21875 21.652344 59.558594 21.101562 59.546875 20.507812 C 59.53125 19.910156 59.167969 19.375 58.613281 19.140625 C 55.105469 16.964844 51.351562 15.664062 47.925781 14.867188 C 48.023438 14.515625 48.101562 14.226562 48.210938 13.917969 C 49.945312 14.132812 56.683594 15.039062 61.273438 18.667969 C 61.570312 18.941406 62.605469 20.460938 63.554688 22.5625 C 64.503906 24.664062 65.503906 27.402344 66.453125 30.542969 C 68.304688 36.671875 69.800781 44.226562 69.871094 51.15625 C 68.144531 53.953125 64.902344 56.03125 61.558594 57.332031 C 58.519531 58.515625 55.683594 59.042969 54.199219 59.183594 L 51.632812 55.71875 C 52.9375 55.296875 54.113281 54.839844 55.148438 54.386719 C 58.984375 52.703125 61.039062 50.921875 61.039062 50.921875 C 61.667969 50.355469 61.71875 49.386719 61.15625 48.757812 C 60.59375 48.128906 59.625 48.074219 58.996094 48.640625 C 58.996094 48.640625 57.402344 50.09375 53.914062 51.632812 C 52.628906 52.195312 51.074219 52.753906 49.304688 53.246094 C 48.894531 53.199219 48.484375 53.320312 48.164062 53.578125 C 45.332031 54.269531 41.964844 54.71875 38 54.71875 C 34.003906 54.71875 30.632812 54.226562 27.789062 53.53125 C 27.46875 53.320312 27.074219 53.230469 26.695312 53.296875 C 24.917969 52.800781 23.375 52.195312 22.085938 51.632812 C 18.597656 50.09375 17.003906 48.640625 17.003906 48.640625 C 16.660156 48.320312 16.1875 48.183594 15.722656 48.261719 C 15.132812 48.347656 14.648438 48.769531 14.488281 49.347656 C 14.320312 49.917969 14.511719 50.535156 14.960938 50.921875 C 14.960938 50.921875 17.015625 52.703125 20.851562 54.386719 C 21.886719 54.839844 23.0625 55.296875 24.367188 55.71875 L 21.800781 59.183594 C 20.316406 59.042969 17.480469 58.515625 14.441406 57.332031 C 11.097656 56.03125 7.855469 53.953125 6.128906 51.15625 C 6.199219 44.226562 7.695312 36.671875 9.546875 30.542969 C 10.496094 27.402344 11.496094 24.664062 12.445312 22.5625 C 13.394531 20.460938 14.429688 18.941406 14.726562 18.667969 C 19.316406 15.039062 26.054688 14.132812 27.789062 13.917969 Z M 28.121094 31.921875 C 24.242188 31.921875 21.28125 35.441406 21.28125 39.519531 C 21.28125 43.597656 24.242188 47.121094 28.121094 47.121094 C 31.996094 47.121094 34.960938 43.597656 34.960938 39.519531 C 34.960938 35.441406 31.996094 31.921875 28.121094 31.921875 Z M 47.878906 31.921875 C 44.003906 31.921875 41.039062 35.441406 41.039062 39.519531 C 41.039062 43.597656 44.003906 47.121094 47.878906 47.121094 C 51.757812 47.121094 54.71875 43.597656 54.71875 39.519531 C 54.71875 35.441406 51.757812 31.921875 47.878906 31.921875 Z M 28.121094 34.960938 C 30.121094 34.960938 31.921875 36.882812 31.921875 39.519531 C 31.921875 42.15625 30.121094 44.078125 28.121094 44.078125 C 26.117188 44.078125 24.320312 42.15625 24.320312 39.519531 C 24.320312 36.882812 26.117188 34.960938 28.121094 34.960938 Z M 47.878906 34.960938 C 49.882812 34.960938 51.679688 36.882812 51.679688 39.519531 C 51.679688 42.15625 49.882812 44.078125 47.878906 44.078125 C 45.878906 44.078125 44.078125 42.15625 44.078125 39.519531 C 44.078125 36.882812 45.878906 34.960938 47.878906 34.960938 Z M 47.878906 34.960938 "/>
</g>
</svg>
