
						<svg
							xmlns="http://www.w3.org/2000/svg"
							xlink="http://www.w3.org/1999/xlink"
							width="827.722"
							height="859.508"
							viewBox="0 0 827.722 859.508"
						>
							<defs>
								<linearGradient
									id="linear-gradient"
									x1="0.061"
									y1="0.019"
									x2="1"
									y2="0.943"
									gradientUnits="objectBoundingBox"
								>
									<stop offset="0" stop-color="#52e2f4" />
									<stop offset="1" stop-color="#67affc" />
								</linearGradient>
								<linearGradient
									id="linear-gradient-2"
									x1="0.976"
									y1="0.029"
									x2="0.037"
									y2="0.948"
									gradientUnits="objectBoundingBox"
								>
									<stop offset="0" stop-color="#7db1fd" />
									<stop offset="1" stop-color="#6eddf8" />
								</linearGradient>
								<linearGradient
									id="linear-gradient-3"
									x1="1"
									y1="0.375"
									x2="0.031"
									y2="0.893"
									gradientUnits="objectBoundingBox"
								>
									<stop offset="0" stop-color="#7db2fd" />
									<stop offset="1" stop-color="#6eddf8" />
								</linearGradient>
							</defs>
							<g id="Group_751" data-name="Group 751" transform="translate(-1093.367 0.373)">
								<path
									id="Path_1947"
									data-name="Path 1947"
									d="M520.018-3176.373s47.9,13.85,81.809,40.521,53.818,66.162,53.818,66.162,15.491,20.88,22.52,74.428,5.6,139.764,5.6,139.764.859,85,37.661,126.148,109.545,38.425,109.545,38.425,49.827.555,95.932,7.378,88.489,19.913,88.489,19.913,61.177,19.087,112.535,58.97,92.9,100.56,92.9,100.56v-672.268Z"
									transform="translate(697.703 3175.999)"
									fill="url(#linear-gradient)"
								/>
								<path
									id="Path_1948"
									data-name="Path 1948"
									d="M598.787-2748.268s46.4-35.935,73.656-71.574,32-48.935,38.374-72.157,8-87.238,32.812-144.54,66.419-84.67,66.419-84.67,24.207-17.97,45.171-31.6,38.686-22.911,38.686-22.911h218.029V-3009.4s-31.2-15.541-73.829-17.289-96.681,10.3-96.681,10.3-38.535,13.265-62.993,34.23-34.841,49.627-34.841,49.627-19.324,36.865-39.589,65.515a381.974,381.974,0,0,1-41.473,49.09s-27.467,32.753-60.311,56.512S625.09-2718,625.09-2718a115.552,115.552,0,0,1-15.689-14.351A81.593,81.593,0,0,1,598.787-2748.268Z"
									transform="translate(807.7 3176.898)"
									fill="url(#linear-gradient-2)"
								/>
								<path
									id="Path_1951"
									data-name="Path 1951"
									d="M712.367-2490.818s94.074,17.126,164.792,68.25,118.079,136.245,118.079,136.245,2.6-78.634-36.332-129.757-119.377-74.738-119.377-74.738Z"
									transform="translate(381 2492)"
									fill="#e7f9fd"
								/>
								<path
									id="Path_1949"
									data-name="Path 1949"
									d="M609.248-2900.405s53.587-12.148,86.3-25.2,59.6-39.2,59.6-39.2,45.13-31.771,88.367-51.1a390.037,390.037,0,0,1,84.583-26.227s36.059-7.2,66.341-5.275a175.47,175.47,0,0,1,54.788,12.971v156.1s-21.185-21.162-49.754-32.979-64.52-14.292-64.52-14.292-23.712-3.8-87.991,4.443c-31.111,3.99-105.044,19.026-105.044,19.026l-60.856,7.115s-20.848.29-36.774,0S609.248-2900.405,609.248-2900.405Z"
									transform="translate(870.379 3380.165)"
									fill="url(#linear-gradient-3)"
								/>
								<path
									id="Path_1950"
									data-name="Path 1950"
									d="M1220-2000s137.169,67.869,217.191,159.653,102.9,207.482,102.9,207.482v-190.613s-70.107-89.13-150.129-133.261S1220-2000,1220-2000Z"
									transform="translate(381 2492)"
									fill="#e2f2ff"
								/>
							</g>
						</svg>
					