<?xml version="1.0" encoding="UTF-8"?>
<svg xmlns="http://www.w3.org/2000/svg" xmlns:xlink="http://www.w3.org/1999/xlink" width="72pt" height="72pt" viewBox="0 0 72 72" version="1.1">
<g id="surface2237604">
<path style=" stroke:none;fill-rule:nonzero;fill:rgb(100%,100%,100%);fill-opacity:1;" d="M 27.359375 2.878906 C 23.402344 2.878906 20.160156 6.121094 20.160156 10.078125 C 20.160156 14.039062 23.402344 17.28125 27.359375 17.28125 L 33.121094 17.28125 C 33.914062 17.28125 34.558594 16.636719 34.558594 15.839844 L 34.558594 10.078125 C 34.558594 6.121094 31.320312 2.878906 27.359375 2.878906 Z M 44.640625 2.878906 C 40.679688 2.878906 37.441406 6.121094 37.441406 10.078125 L 37.441406 27.359375 C 37.441406 31.320312 40.679688 34.558594 44.640625 34.558594 C 48.597656 34.558594 51.839844 31.320312 51.839844 27.359375 L 51.839844 10.078125 C 51.839844 6.121094 48.597656 2.878906 44.640625 2.878906 Z M 27.359375 5.761719 C 29.761719 5.761719 31.679688 7.675781 31.679688 10.078125 L 31.679688 14.398438 L 27.359375 14.398438 C 24.957031 14.398438 23.039062 12.484375 23.039062 10.078125 C 23.039062 7.675781 24.957031 5.761719 27.359375 5.761719 Z M 44.640625 5.761719 C 47.042969 5.761719 48.960938 7.675781 48.960938 10.078125 L 48.960938 27.359375 C 48.960938 29.761719 47.042969 31.679688 44.640625 31.679688 C 42.238281 31.679688 40.320312 29.761719 40.320312 27.359375 L 40.320312 10.078125 C 40.320312 7.675781 42.238281 5.761719 44.640625 5.761719 Z M 10.078125 20.160156 C 6.121094 20.160156 2.878906 23.402344 2.878906 27.359375 C 2.878906 31.320312 6.121094 34.558594 10.078125 34.558594 L 27.359375 34.558594 C 31.320312 34.558594 34.558594 31.320312 34.558594 27.359375 C 34.558594 23.402344 31.320312 20.160156 27.359375 20.160156 Z M 61.921875 20.160156 C 57.960938 20.160156 54.71875 23.402344 54.71875 27.359375 L 54.71875 33.121094 C 54.71875 33.914062 55.363281 34.558594 56.160156 34.558594 L 61.921875 34.558594 C 65.878906 34.558594 69.121094 31.320312 69.121094 27.359375 C 69.121094 23.402344 65.878906 20.160156 61.921875 20.160156 Z M 10.078125 23.039062 L 27.359375 23.039062 C 29.761719 23.039062 31.679688 24.957031 31.679688 27.359375 C 31.679688 29.761719 29.761719 31.679688 27.359375 31.679688 L 10.078125 31.679688 C 7.675781 31.679688 5.761719 29.761719 5.761719 27.359375 C 5.761719 24.957031 7.675781 23.039062 10.078125 23.039062 Z M 61.921875 23.039062 C 64.324219 23.039062 66.238281 24.957031 66.238281 27.359375 C 66.238281 29.761719 64.324219 31.679688 61.921875 31.679688 L 57.601562 31.679688 L 57.601562 27.359375 C 57.601562 24.957031 59.515625 23.039062 61.921875 23.039062 Z M 10.078125 37.441406 C 6.121094 37.441406 2.878906 40.679688 2.878906 44.640625 C 2.878906 48.597656 6.121094 51.839844 10.078125 51.839844 C 14.039062 51.839844 17.28125 48.597656 17.28125 44.640625 L 17.28125 38.878906 C 17.28125 38.085938 16.636719 37.441406 15.839844 37.441406 Z M 27.359375 37.441406 C 23.402344 37.441406 20.160156 40.679688 20.160156 44.640625 L 20.160156 61.921875 C 20.160156 65.878906 23.402344 69.121094 27.359375 69.121094 C 31.320312 69.121094 34.558594 65.878906 34.558594 61.921875 L 34.558594 44.640625 C 34.558594 40.679688 31.320312 37.441406 27.359375 37.441406 Z M 44.640625 37.441406 C 40.679688 37.441406 37.441406 40.679688 37.441406 44.640625 C 37.441406 48.597656 40.679688 51.839844 44.640625 51.839844 L 61.921875 51.839844 C 65.878906 51.839844 69.121094 48.597656 69.121094 44.640625 C 69.121094 40.679688 65.878906 37.441406 61.921875 37.441406 Z M 10.078125 40.320312 L 14.398438 40.320312 L 14.398438 44.640625 C 14.398438 47.042969 12.484375 48.960938 10.078125 48.960938 C 7.675781 48.960938 5.761719 47.042969 5.761719 44.640625 C 5.761719 42.238281 7.675781 40.320312 10.078125 40.320312 Z M 27.359375 40.320312 C 29.761719 40.320312 31.679688 42.238281 31.679688 44.640625 L 31.679688 61.921875 C 31.679688 64.324219 29.761719 66.238281 27.359375 66.238281 C 24.957031 66.238281 23.039062 64.324219 23.039062 61.921875 L 23.039062 44.640625 C 23.039062 42.238281 24.957031 40.320312 27.359375 40.320312 Z M 44.640625 40.320312 L 61.921875 40.320312 C 64.324219 40.320312 66.238281 42.238281 66.238281 44.640625 C 66.238281 47.042969 64.324219 48.960938 61.921875 48.960938 L 44.640625 48.960938 C 42.238281 48.960938 40.320312 47.042969 40.320312 44.640625 C 40.320312 42.238281 42.238281 40.320312 44.640625 40.320312 Z M 38.878906 54.71875 C 38.085938 54.71875 37.441406 55.363281 37.441406 56.160156 L 37.441406 61.921875 C 37.441406 65.878906 40.679688 69.121094 44.640625 69.121094 C 48.597656 69.121094 51.839844 65.878906 51.839844 61.921875 C 51.839844 57.960938 48.597656 54.71875 44.640625 54.71875 Z M 40.320312 57.601562 L 44.640625 57.601562 C 47.042969 57.601562 48.960938 59.515625 48.960938 61.921875 C 48.960938 64.324219 47.042969 66.238281 44.640625 66.238281 C 42.238281 66.238281 40.320312 64.324219 40.320312 61.921875 Z M 40.320312 57.601562 "/>
</g>
</svg>
