<?xml version="1.0" encoding="UTF-8"?>
<svg xmlns="http://www.w3.org/2000/svg" xmlns:xlink="http://www.w3.org/1999/xlink" width="72pt" height="72pt" viewBox="0 0 72 72" version="1.1">
<g id="surface2264779">
<path style=" stroke:none;fill-rule:nonzero;fill:rgb(100%,100%,100%);fill-opacity:1;" d="M 36 4.320312 C 18.519531 4.320312 4.320312 18.519531 4.320312 36 C 4.320312 51.867188 16.023438 65 31.265625 67.289062 L 32.921875 67.539062 L 32.921875 42.574219 L 25.4375 42.574219 L 25.4375 37.507812 L 32.921875 37.507812 L 32.921875 30.777344 C 32.921875 26.632812 33.914062 23.902344 35.5625 22.191406 C 37.207031 20.476562 39.640625 19.613281 43.027344 19.613281 C 45.734375 19.613281 46.785156 19.777344 47.789062 19.902344 L 47.789062 24.050781 L 44.261719 24.050781 C 42.261719 24.050781 40.621094 25.164062 39.773438 26.652344 C 38.921875 28.136719 38.65625 29.910156 38.65625 31.71875 L 38.65625 37.503906 L 47.472656 37.503906 L 46.6875 42.574219 L 38.65625 42.574219 L 38.65625 67.578125 L 40.289062 67.355469 C 55.75 65.261719 67.679688 52.023438 67.679688 36 C 67.679688 18.519531 53.480469 4.320312 36 4.320312 Z M 36 7.199219 C 51.921875 7.199219 64.800781 20.078125 64.800781 36 C 64.800781 50.011719 54.773438 61.535156 41.535156 64.128906 L 41.535156 45.453125 L 49.15625 45.453125 L 50.832031 34.625 L 41.535156 34.625 L 41.535156 31.71875 C 41.535156 30.226562 41.808594 28.886719 42.269531 28.082031 C 42.730469 27.277344 43.175781 26.929688 44.261719 26.929688 L 50.667969 26.929688 L 50.667969 17.292969 L 49.417969 17.125 C 48.554688 17.007812 46.582031 16.734375 43.027344 16.734375 C 39.132812 16.734375 35.792969 17.792969 33.484375 20.195312 C 31.179688 22.59375 30.039062 26.164062 30.039062 30.777344 L 30.039062 34.628906 L 22.554688 34.628906 L 22.554688 45.457031 L 30.039062 45.457031 L 30.039062 64.039062 C 17.015625 61.277344 7.199219 49.859375 7.199219 36 C 7.199219 20.078125 20.078125 7.199219 36 7.199219 Z M 36 7.199219 "/>
</g>
</svg>
