<?xml version="1.0" encoding="UTF-8"?>
<svg xmlns="http://www.w3.org/2000/svg" xmlns:xlink="http://www.w3.org/1999/xlink" width="72pt" height="72pt" viewBox="0 0 72 72" version="1.1">
<g id="surface2319020">
<path style=" stroke:none;fill-rule:nonzero;fill:rgb(100%,100%,100%);fill-opacity:1;" d="M 12.960938 5.761719 C 9 5.761719 5.761719 9 5.761719 12.960938 L 5.761719 59.039062 C 5.761719 63 9 66.238281 12.960938 66.238281 L 59.039062 66.238281 C 63 66.238281 66.238281 63 66.238281 59.039062 L 66.238281 12.960938 C 66.238281 9 63 5.761719 59.039062 5.761719 Z M 12.960938 8.640625 L 59.039062 8.640625 C 61.441406 8.640625 63.359375 10.558594 63.359375 12.960938 L 63.359375 59.039062 C 63.359375 61.441406 61.441406 63.359375 59.039062 63.359375 L 12.960938 63.359375 C 10.558594 63.359375 8.640625 61.441406 8.640625 59.039062 L 8.640625 12.960938 C 8.640625 10.558594 10.558594 8.640625 12.960938 8.640625 Z M 36 14.398438 C 23.46875 14.398438 12.960938 22.578125 12.960938 33.042969 C 12.960938 42.382812 21.289062 49.96875 32.164062 51.425781 L 32.167969 51.425781 C 32.453125 51.488281 32.78125 51.585938 32.976562 51.675781 C 33.015625 51.695312 33.011719 51.695312 33.03125 51.710938 C 33.027344 51.828125 33.066406 52.375 33.011719 52.789062 C 32.996094 52.871094 32.761719 54.265625 32.710938 54.542969 L 32.710938 54.546875 C 32.644531 54.929688 32.390625 55.703125 33.046875 56.691406 C 33.375 57.183594 34.054688 57.585938 34.6875 57.640625 C 35.324219 57.695312 35.910156 57.535156 36.558594 57.261719 C 38.050781 56.644531 41.027344 54.886719 44.460938 52.535156 C 47.894531 50.183594 51.605469 47.335938 54.03125 44.597656 C 57.332031 41.046875 59.039062 37.214844 59.039062 33.042969 C 59.039062 22.578125 48.53125 14.398438 36 14.398438 Z M 36 17.28125 C 47.289062 17.28125 56.160156 24.539062 56.160156 33.042969 C 56.160156 36.460938 54.871094 39.46875 51.914062 42.644531 L 51.890625 42.675781 C 49.785156 45.054688 46.171875 47.875 42.835938 50.15625 C 39.589844 52.378906 36.554688 54.085938 35.640625 54.488281 C 35.734375 53.9375 35.855469 53.21875 35.855469 53.21875 L 35.863281 53.191406 L 35.863281 53.167969 C 35.945312 52.566406 36.160156 51.652344 35.703125 50.519531 L 35.703125 50.515625 C 35.359375 49.683594 34.722656 49.316406 34.203125 49.074219 C 33.683594 48.828125 33.179688 48.699219 32.765625 48.609375 L 32.710938 48.597656 L 32.648438 48.589844 C 22.824219 47.316406 15.839844 40.679688 15.839844 33.042969 C 15.839844 24.539062 24.710938 17.28125 36 17.28125 Z M 34.546875 27.355469 C 33.824219 27.371094 33.121094 27.925781 33.121094 28.800781 L 33.121094 37.441406 C 33.121094 38.234375 33.765625 38.878906 34.558594 38.878906 C 35.355469 38.878906 36 38.234375 36 37.441406 L 36 33.292969 L 39.148438 38.273438 C 39.960938 39.414062 41.761719 38.839844 41.761719 37.441406 L 41.761719 28.800781 C 41.761719 28.003906 41.113281 27.359375 40.320312 27.359375 C 39.523438 27.359375 38.878906 28.003906 38.878906 28.800781 L 38.878906 33.121094 L 35.734375 27.964844 C 35.425781 27.535156 34.984375 27.347656 34.546875 27.355469 Z M 21.601562 27.359375 C 20.804688 27.359375 20.160156 28.003906 20.160156 28.800781 L 20.160156 37.441406 C 20.160156 38.234375 20.804688 38.878906 21.601562 38.878906 L 25.921875 38.878906 C 26.714844 38.878906 27.359375 38.234375 27.359375 37.441406 C 27.359375 36.644531 26.714844 36 25.921875 36 L 23.039062 36 L 23.039062 28.800781 C 23.039062 28.003906 22.394531 27.359375 21.601562 27.359375 Z M 30.238281 27.359375 C 29.445312 27.359375 28.800781 28.003906 28.800781 28.800781 L 28.800781 37.441406 C 28.800781 38.234375 29.445312 38.878906 30.238281 38.878906 C 31.035156 38.878906 31.679688 38.234375 31.679688 37.441406 L 31.679688 28.800781 C 31.679688 28.003906 31.035156 27.359375 30.238281 27.359375 Z M 44.640625 27.359375 C 43.84375 27.359375 43.199219 28.003906 43.199219 28.800781 L 43.199219 37.441406 C 43.199219 38.234375 43.84375 38.878906 44.640625 38.878906 L 48.960938 38.878906 C 49.753906 38.878906 50.398438 38.234375 50.398438 37.441406 C 50.398438 36.644531 49.753906 36 48.960938 36 L 46.078125 36 L 46.078125 34.558594 L 48.960938 34.558594 C 49.757812 34.558594 50.398438 33.914062 50.398438 33.121094 C 50.398438 32.324219 49.757812 31.679688 48.960938 31.679688 L 46.078125 31.679688 L 46.078125 30.238281 L 48.960938 30.238281 C 49.753906 30.238281 50.398438 29.59375 50.398438 28.800781 C 50.398438 28.003906 49.753906 27.359375 48.960938 27.359375 Z M 44.640625 27.359375 "/>
</g>
</svg>
