<?xml version="1.0" encoding="UTF-8"?>
<svg xmlns="http://www.w3.org/2000/svg" xmlns:xlink="http://www.w3.org/1999/xlink" width="72pt" height="72pt" viewBox="0 0 72 72" version="1.1">
<g id="surface2319566">
<path style=" stroke:none;fill-rule:nonzero;fill:rgb(100%,100%,100%);fill-opacity:1;" d="M 7.476562 39.367188 L 7.320312 39.183594 C 4.003906 35.328125 2.25 30.804688 2.25 26.101562 C 2.25 13.445312 14.96875 3.148438 30.601562 3.148438 C 46.230469 3.148438 58.949219 13.445312 58.949219 26.101562 C 58.949219 38.753906 46.230469 49.050781 30.601562 49.050781 C 25.976562 49.050781 21.386719 48.125 17.316406 46.375 L 17.160156 46.304688 L 4.265625 50.601562 Z M 7.476562 39.367188 "/>
<path style=" stroke:none;fill-rule:nonzero;fill:rgb(100%,100%,100%);fill-opacity:1;" d="M 30.601562 3.601562 C 45.984375 3.601562 58.5 13.695312 58.5 26.101562 C 58.5 38.507812 45.984375 48.601562 30.601562 48.601562 C 26.039062 48.601562 21.507812 47.6875 17.496094 45.960938 L 17.179688 45.824219 L 16.855469 45.933594 L 4.933594 49.90625 L 7.84375 39.726562 L 7.976562 39.261719 L 7.660156 38.890625 C 4.414062 35.117188 2.699219 30.695312 2.699219 26.101562 C 2.699219 13.695312 15.214844 3.601562 30.601562 3.601562 M 30.601562 2.699219 C 14.695312 2.699219 1.800781 13.175781 1.800781 26.101562 C 1.800781 31.074219 3.71875 35.6875 6.976562 39.476562 L 3.601562 51.300781 L 17.140625 46.785156 C 21.15625 48.515625 25.738281 49.5 30.601562 49.5 C 46.503906 49.5 59.398438 39.023438 59.398438 26.101562 C 59.398438 13.175781 46.503906 2.699219 30.601562 2.699219 Z M 30.601562 2.699219 "/>
<path style=" stroke:none;fill-rule:nonzero;fill:rgb(100%,100%,100%);fill-opacity:1;" d="M 58.476562 63.21875 L 58.289062 63.296875 C 55.265625 64.59375 52.003906 65.25 48.601562 65.25 C 36.9375 65.25 27.449219 57.375 27.449219 47.699219 C 27.449219 38.023438 36.9375 30.148438 48.601562 30.148438 C 60.261719 30.148438 69.75 38.023438 69.75 47.699219 C 69.75 50.832031 68.738281 53.90625 66.828125 56.59375 L 66.710938 56.761719 L 69.542969 68.488281 Z M 58.476562 63.21875 "/>
<path style=" stroke:none;fill-rule:nonzero;fill:rgb(100%,100%,100%);fill-opacity:1;" d="M 48.601562 30.601562 C 60.015625 30.601562 69.300781 38.269531 69.300781 47.699219 C 69.300781 50.734375 68.320312 53.722656 66.460938 56.332031 L 66.226562 56.667969 L 66.320312 57.066406 L 68.882812 67.675781 L 58.851562 62.898438 L 58.484375 62.722656 L 58.109375 62.886719 C 55.144531 64.15625 51.945312 64.800781 48.601562 64.800781 C 37.1875 64.800781 27.898438 57.128906 27.898438 47.699219 C 27.898438 38.269531 37.1875 30.601562 48.601562 30.601562 M 48.601562 29.699219 C 36.671875 29.699219 27 37.757812 27 47.699219 C 27 57.640625 36.671875 65.699219 48.601562 65.699219 C 52.15625 65.699219 55.507812 64.980469 58.464844 63.710938 L 70.199219 69.300781 L 67.195312 56.855469 C 69.101562 54.171875 70.199219 51.042969 70.199219 47.699219 C 70.199219 37.757812 60.53125 29.699219 48.601562 29.699219 Z M 48.601562 29.699219 "/>
<path style=" stroke:none;fill-rule:nonzero;fill:rgb(25.882353%,30.588235%,36.078431%);fill-opacity:1;" d="M 41.398438 42.300781 C 40.40625 42.300781 39.601562 43.105469 39.601562 44.101562 C 39.601562 45.09375 40.40625 45.898438 41.398438 45.898438 C 42.394531 45.898438 43.199219 45.09375 43.199219 44.101562 C 43.199219 43.105469 42.394531 42.300781 41.398438 42.300781 Z M 55.800781 42.300781 C 54.804688 42.300781 54 43.105469 54 44.101562 C 54 45.09375 54.804688 45.898438 55.800781 45.898438 C 56.792969 45.898438 57.601562 45.09375 57.601562 44.101562 C 57.601562 43.105469 56.792969 42.300781 55.800781 42.300781 Z M 21.601562 17.101562 C 20.109375 17.101562 18.898438 18.308594 18.898438 19.800781 C 18.898438 21.292969 20.109375 22.5 21.601562 22.5 C 23.089844 22.5 24.300781 21.292969 24.300781 19.800781 C 24.300781 18.308594 23.089844 17.101562 21.601562 17.101562 Z M 41.398438 17.101562 C 39.910156 17.101562 38.699219 18.308594 38.699219 19.800781 C 38.699219 21.292969 39.910156 22.5 41.398438 22.5 C 42.890625 22.5 44.101562 21.292969 44.101562 19.800781 C 44.101562 18.308594 42.890625 17.101562 41.398438 17.101562 Z M 41.398438 17.101562 "/>
</g>
</svg>
